<?xml version="1.0" encoding="UTF-8"?>
<!DOCTYPE svg PUBLIC "-//W3C//DTD SVG 1.1//EN" "http://www.w3.org/Graphics/SVG/1.1/DTD/svg11.dtd">
<!-- Creator: CorelDRAW 2018 (64-Bit Evaluation Version) -->
<svg xmlns="http://www.w3.org/2000/svg" xml:space="preserve" width="960px" height="960px" version="1.1" style="shape-rendering:geometricPrecision; text-rendering:geometricPrecision; image-rendering:optimizeQuality; fill-rule:evenodd; clip-rule:evenodd"
viewBox="0 0 960 960"
 xmlns:xlink="http://www.w3.org/1999/xlink">
 <defs>
  <style type="text/css">
   <![CDATA[
    .fil0 {fill:#B0000F}
   ]]>
  </style>
 </defs>
 <g id="Layer_x0020_1">
  <metadata id="CorelCorpID_0Corel-Layer"/>
  <g id="_2803726933536">
   <path class="fil0" d="M376 515l4.742 35.258c7.733,39.469 10.598,56.915 23.878,97.123 3.172,9.607 7.268,20.314 11.365,28.634 2.223,4.513 4.306,8.53 6.678,13.322 2.557,5.17 4.674,8.055 7.38,12.62 3.779,6.372 12.405,16.996 18.364,21.635 9.437,7.35 18.517,11.476 27.556,12.408l7.897 0c8.903,-0.913 17.857,-4.914 27.16,-11.98 9.294,-7.057 20.671,-23.275 25.987,-34.012 25.232,-50.958 30.592,-81.893 41.909,-138.092 5.742,-28.507 8.491,-50.135 -4.569,-77.263 -11.066,-22.984 -28.437,-40.492 -51.668,-51.332 -69.993,-32.66 -146.679,24.267 -146.679,91.679z"/>
   <path class="fil0" d="M575 447c5.925,8.85 11.65,17.089 15.631,28.37 10.555,29.921 9.111,42.226 3.653,74.914 -5.822,34.864 -9.705,48.762 -18.162,80.957 -1.646,6.262 5.372,16.705 8.21,22.428 8.084,16.301 25.825,41.331 46.668,41.331 21.602,0 32.719,-11.497 44.149,-27.851 8.672,-12.407 16.577,-30.735 21.724,-46.275 6.552,-19.78 24.127,-87.878 24.127,-110.874 0,-23.327 -11.815,-46.87 -27.692,-61.309 -7.044,-6.405 -12.036,-10.911 -21.624,-15.375 -27.569,-12.838 -60.344,-11.111 -85.701,5.668 -4.025,2.663 -6.956,5.319 -10.983,8.016z"/>
   <path class="fil0" d="M239 509c0,24.729 16.615,89.27 23.873,111.127 8.279,24.937 29.707,74.873 61.127,74.873 15.617,0 22.783,-4.354 33.759,-15.241 7.149,-7.091 13.145,-16.483 17.909,-26.09 2.72,-5.484 4.545,-9.213 7.104,-14.967 2.738,-6.152 1.999,-4.277 -1.425,-16.049 -5.297,-18.215 -22.296,-95.639 -19.935,-111.227 2.869,-18.937 0.988,-16.3 7.957,-36.056 3.981,-11.281 9.706,-19.52 15.631,-28.37 -4.027,-2.697 -6.958,-5.353 -10.983,-8.016 -29.267,-19.366 -70.151,-18.835 -98.177,1.855 -13.303,9.82 -21.066,19.578 -28.519,34.483 -4.119,8.237 -8.321,21.837 -8.321,33.678z"/>
   <path class="fil0" d="M388 314.999c0,19.123 5.964,36.35 15.192,50.811 14.053,22.022 42.963,41.191 71.808,41.191l10 0c24.704,0 48.928,-14.833 61.271,-27.73l9.744 -12.255c24.282,-37.028 20.216,-82.687 -9.251,-114.781 -6.412,-6.983 -17.585,-14.65 -26.094,-18.905 -10.91,-5.457 -23.02,-8.591 -35.271,-9.33l-11.335 0c-11.85,0.716 -23.527,3.693 -34.069,8.995 -30.982,15.58 -51.995,46.034 -51.995,82.004z"/>
   <path class="fil0" d="M582 284c0.288,3.473 2.105,8.636 2.731,12.268 0.878,5.085 0.839,8.043 1.558,13.448 1.072,8.045 -0.176,18.263 -1.867,26.705 -4.471,22.314 -10.388,27.396 -18.422,42.579 18.134,34.269 62.453,50.489 100.684,32.685 57.04,-26.563 59.464,-109.808 1.985,-138.354 -20.446,-10.154 -45.445,-11.794 -66.349,-2.01 -8.727,4.084 -13.106,7.847 -20.32,12.679z"/>
   <path class="fil0" d="M249.001 342c0,42.847 35.026,77 77.998,77 31.099,0 56.246,-19.674 67.001,-40 -7.713,-14.576 -13.792,-20.146 -18.406,-41.594 -2.925,-13.591 -2.536,-33.724 0.856,-46.956 0.771,-3.008 1.285,-3.263 1.55,-6.45 -22.582,-15.121 -27.981,-19 -57.001,-19 -11.332,0 -21.353,4.184 -29,7.999 -15.597,7.78 -29.238,21.332 -36.292,37.707 -3.599,8.353 -6.706,19.782 -6.706,31.294z"/>
  </g>
 </g>
</svg>
