<?xml version="1.0" encoding="UTF-8"?>
<!DOCTYPE svg PUBLIC "-//W3C//DTD SVG 1.1//EN" "http://www.w3.org/Graphics/SVG/1.1/DTD/svg11.dtd">
<!-- Creator: CorelDRAW 2018 (64-Bit Evaluation Version) -->
<svg xmlns="http://www.w3.org/2000/svg" xml:space="preserve" width="960px" height="960px" version="1.1" style="shape-rendering:geometricPrecision; text-rendering:geometricPrecision; image-rendering:optimizeQuality; fill-rule:evenodd; clip-rule:evenodd"
viewBox="0 0 960 960"
 xmlns:xlink="http://www.w3.org/1999/xlink">
 <defs>
  <style type="text/css">
   <![CDATA[
    .fil0 {fill:#00A655}
   ]]>
  </style>
 </defs>
 <g id="Layer_x0020_1">
  <metadata id="CorelCorpID_0Corel-Layer"/>
  <g id="_2803726750144">
   <path class="fil0" d="M376.151 515l4.742 35.258c7.733,39.469 10.598,56.915 23.877,97.123 3.173,9.607 7.269,20.314 11.366,28.634 2.223,4.513 4.306,8.53 6.678,13.322 2.557,5.17 4.674,8.055 7.379,12.62 3.78,6.372 12.406,16.996 18.364,21.635 9.437,7.35 18.517,11.476 27.557,12.408l7.896 0c8.904,-0.913 17.858,-4.914 27.161,-11.98 9.293,-7.057 20.671,-23.275 25.987,-34.012 25.232,-50.958 30.592,-81.893 41.909,-138.092 5.741,-28.507 8.491,-50.135 -4.57,-77.263 -11.065,-22.984 -28.436,-40.492 -51.667,-51.332 -69.993,-32.66 -146.679,24.267 -146.679,91.679z"/>
   <path class="fil0" d="M388.151 314.999c0,19.123 5.963,36.35 15.191,50.811 14.054,22.022 42.964,41.191 71.809,41.191l9.999 0c24.704,0 48.929,-14.833 61.271,-27.73l9.744 -12.255c24.283,-37.028 20.216,-82.687 -9.25,-114.781 -6.412,-6.983 -17.586,-14.65 -26.094,-18.905 -10.91,-5.457 -23.02,-8.591 -35.272,-9.33l-11.335 0c-11.85,0.716 -23.526,3.693 -34.069,8.995 -30.981,15.58 -51.994,46.034 -51.994,82.004z"/>
  </g>
 </g>
</svg>
