<?xml version="1.0" encoding="UTF-8"?>
<!DOCTYPE svg PUBLIC "-//W3C//DTD SVG 1.1//EN" "http://www.w3.org/Graphics/SVG/1.1/DTD/svg11.dtd">
<!-- Creator: CorelDRAW 2018 (64-Bit Evaluation Version) -->
<svg xmlns="http://www.w3.org/2000/svg" xml:space="preserve" width="960px" height="960px" version="1.1" style="shape-rendering:geometricPrecision; text-rendering:geometricPrecision; image-rendering:optimizeQuality; fill-rule:evenodd; clip-rule:evenodd"
viewBox="0 0 960 960"
 xmlns:xlink="http://www.w3.org/1999/xlink">
 <defs>
  <style type="text/css">
   <![CDATA[
    .fil0 {fill:white}
    .fil1 {fill:white;fill-rule:nonzero}
   ]]>
  </style>
 </defs>
 <g id="Layer_x0020_1">
  <metadata id="CorelCorpID_0Corel-Layer"/>
  <g id="_2803713972624">
   <path class="fil0" d="M443.394 423.673c-1.958,-1.617 -12.631,-6.239 -16.364,-8.601 -6.482,-4.102 -9.393,-6.583 -14,-11.192 -18.197,-15.172 -30.807,-38.247 -32.269,-71.061 -7.671,-2.647 -25.663,-1.22 -34.617,-1.085 0.012,35.538 11.687,55.009 24.66,81.222 10.537,21.291 102.983,206.185 106.997,210.386 3.919,-4.153 95.465,-187.416 106.611,-209.31 13.343,-26.209 24.885,-46.818 24.962,-82.274 -9.055,-0.198 -26.653,-1.393 -34.65,0.909 -1.219,36.806 -18.412,63.087 -39.087,77.783 -28.075,19.959 -54.031,24.382 -92.243,13.223z"/>
   <path class="fil0" d="M298.813 261.861l36.167 0.301c16.511,-26.83 25.067,-42.961 53.922,-62.565 54.313,-36.895 123.796,-37.492 178.43,-0.645 26.276,17.721 37.646,33.881 54.763,63.055l36.11 0.085c-3.305,-25.455 -40.796,-68.812 -64.633,-86.462 -28.752,-21.289 -66.851,-37.92 -114.313,-38.04 -65.463,-0.165 -117.542,29.668 -153.252,74.916 -7.151,9.061 -24.988,36.351 -27.194,49.355z"/>
   <path class="fil0" d="M471.016 298.531c20.115,-5.001 36.598,8.471 40.699,24.533 5.223,20.46 -8.765,37.854 -24.571,41.901 -43.303,11.082 -61.68,-55.111 -16.128,-66.434zm-57.986 105.349c4.607,4.609 7.518,7.09 14,11.192 3.733,2.362 14.406,6.984 16.364,8.601l0.377 -35.469c20.205,4.499 26.496,13.757 53.48,5.883 50.794,-14.824 63.481,-84.605 18.469,-115.825 -31.974,-22.174 -70.067,-10.812 -88.418,13.663 -25.237,33.664 -7.46,89.385 -14.272,111.955z"/>
   <path class="fil0" d="M349.071 307.66l33.97 0.038c9.073,-20.174 6.986,-29.159 32.799,-51.993 51.658,-45.697 141.53,-19.345 158.013,51.919l34.398 0.206c-2.013,-30.835 -27.51,-63.556 -42.813,-76.383 -21.508,-18.028 -47.948,-32.509 -86.179,-32.637 -36.837,-0.122 -66.059,13.665 -86.775,32.047 -15.127,13.422 -41.796,44.927 -43.413,76.803z"/>
   <path class="fil1" d="M195.997 752.583l-8.674 8.726c-3.512,-3.512 -6.707,-5.267 -9.587,-5.267 -1.562,0 -2.791,0.333 -3.687,1 -0.896,0.667 -1.334,1.493 -1.334,2.476 0,0.755 0.28,1.44 0.842,2.072 0.562,0.632 1.967,1.492 4.197,2.598l5.127 2.564c5.408,2.651 9.13,5.373 11.149,8.129 2.019,2.775 3.02,6.005 3.02,9.728 0,4.951 -1.826,9.095 -5.478,12.396 -3.652,3.318 -8.551,4.969 -14.696,4.969 -8.147,0 -14.679,-3.178 -19.543,-9.552l8.657 -9.411c1.65,1.914 3.582,3.476 5.811,4.653 2.213,1.176 4.179,1.773 5.9,1.773 1.844,0 3.353,-0.439 4.478,-1.334 1.141,-0.896 1.703,-1.914 1.703,-3.073 0,-2.16 -2.037,-4.267 -6.128,-6.303l-4.723 -2.371c-9.06,-4.547 -13.59,-10.236 -13.59,-17.066 0,-4.407 1.703,-8.182 5.109,-11.308 3.406,-3.125 7.761,-4.688 13.063,-4.688 3.635,0 7.041,0.808 10.254,2.406 3.196,1.598 5.9,3.897 8.13,6.883z"/>
   <path id="1" class="fil1" d="M208.007 744.664l14.011 0 0 6.531c2.405,-2.651 5.074,-4.635 8.024,-5.934 2.932,-1.317 6.145,-1.967 9.622,-1.967 3.494,0 6.672,0.861 9.481,2.581 2.827,1.721 5.092,4.249 6.813,7.55 2.23,-3.301 4.969,-5.829 8.217,-7.55 3.248,-1.72 6.813,-2.581 10.658,-2.581 3.986,0 7.497,0.931 10.517,2.775 3.038,1.843 5.197,4.266 6.532,7.234 1.317,2.984 1.984,7.83 1.984,14.538l0 32.763 -14.011 0 0 -28.269c0,-6.32 -0.791,-10.605 -2.388,-12.834 -1.598,-2.23 -4.003,-3.354 -7.182,-3.354 -2.44,0 -4.617,0.684 -6.531,2.054 -1.932,1.352 -3.371,3.248 -4.302,5.654 -0.931,2.405 -1.405,6.268 -1.405,11.606l0 25.143 -14.011 0 0 -26.987c0,-4.986 -0.369,-8.603 -1.124,-10.833 -0.737,-2.248 -1.861,-3.898 -3.336,-5.004 -1.492,-1.089 -3.301,-1.633 -5.408,-1.633 -2.353,0 -4.495,0.684 -6.408,2.072 -1.932,1.387 -3.354,3.318 -4.32,5.811 -0.948,2.494 -1.422,6.427 -1.422,11.782l0 24.792 -14.011 0 0 -55.94z"/>
   <path id="2" class="fil1" d="M348.542 744.664l14.011 0 0 55.94 -14.011 0 0 -5.952c-2.739,2.599 -5.495,4.46 -8.252,5.601 -2.757,1.141 -5.759,1.721 -8.972,1.721 -7.252,0 -13.502,-2.792 -18.788,-8.393 -5.285,-5.584 -7.918,-12.537 -7.918,-20.842 0,-8.621 2.563,-15.679 7.673,-21.192 5.109,-5.496 11.307,-8.253 18.611,-8.253 3.371,0 6.514,0.632 9.464,1.879 2.95,1.247 5.671,3.143 8.182,5.636l0 -6.145zm-14.766 11.483c-4.355,0 -7.972,1.527 -10.834,4.6 -2.879,3.055 -4.319,6.988 -4.319,11.782 0,4.828 1.457,8.796 4.39,11.921 2.932,3.108 6.531,4.671 10.815,4.671 4.408,0 8.077,-1.528 10.974,-4.6 2.915,-3.055 4.372,-7.076 4.372,-12.045 0,-4.864 -1.457,-8.797 -4.372,-11.817 -2.897,-3.002 -6.584,-4.512 -11.026,-4.512z"/>
   <path id="3" class="fil1" d="M373.422 744.664l12.115 0 0 7.111c1.3,-2.774 3.02,-4.881 5.162,-6.321 2.16,-1.44 4.513,-2.16 7.059,-2.16 1.808,0 3.705,0.474 5.688,1.44l-4.354 12.115c-1.633,-0.825 -2.985,-1.229 -4.038,-1.229 -2.142,0 -3.969,1.334 -5.443,4.003 -1.493,2.669 -2.23,7.902 -2.23,15.697l0.052 2.722 0 22.562 -14.011 0 0 -55.94z"/>
   <polygon id="4" class="fil1" points="412.068,724.015 426.079,724.015 426.079,744.664 434.402,744.664 434.402,756.779 426.079,756.779 426.079,800.604 412.068,800.604 412.068,756.779 404.904,756.779 404.904,744.664 412.068,744.664 "/>
   <path id="5" class="fil1" d="M444.076 724.964l15.083 0c8.638,0 14.485,0.368 17.505,1.123 4.319,1.071 7.848,3.248 10.587,6.567 2.757,3.301 4.127,7.462 4.127,12.466 0,5.039 -1.335,9.183 -4.021,12.467 -2.669,3.266 -6.356,5.46 -11.044,6.601 -3.442,0.826 -9.851,1.229 -19.244,1.229l-5.408 0 0 35.187 -7.585 0 0 -75.64zm7.585 7.374l0 25.705 12.818 0.158c5.179,0 8.972,-0.474 11.377,-1.422 2.406,-0.948 4.302,-2.458 5.672,-4.565 1.369,-2.107 2.054,-4.478 2.054,-7.076 0,-2.528 -0.685,-4.864 -2.054,-6.971 -1.37,-2.107 -3.196,-3.599 -5.444,-4.495 -2.247,-0.895 -5.916,-1.334 -11.044,-1.334l-13.379 0z"/>
   <path id="6" class="fil1" d="M560.996 744.664l0 55.94 -7.164 0 0 -9.622c-3.02,3.67 -6.391,6.427 -10.148,8.252 -3.74,1.827 -7.849,2.74 -12.291,2.74 -7.902,0 -14.661,-2.862 -20.263,-8.586 -5.6,-5.742 -8.392,-12.695 -8.392,-20.912 0,-8.024 2.827,-14.907 8.481,-20.613 5.636,-5.707 12.43,-8.569 20.384,-8.569 4.583,0 8.727,0.966 12.449,2.897 3.705,1.932 6.971,4.846 9.78,8.762l0 -10.289 7.164 0zm-28.831 5.583c-4.003,0 -7.708,0.984 -11.079,2.95 -3.389,1.949 -6.075,4.706 -8.077,8.252 -2.001,3.547 -3.002,7.305 -3.002,11.273 0,3.915 1.001,7.673 3.02,11.254 2.019,3.582 4.723,6.374 8.129,8.358 3.407,2.002 7.059,3.003 10.957,3.003 3.915,0 7.655,-0.983 11.166,-2.968 3.53,-1.984 6.234,-4.653 8.13,-8.041 1.896,-3.371 2.844,-7.182 2.844,-11.413 0,-6.444 -2.124,-11.834 -6.391,-16.171 -4.249,-4.337 -9.481,-6.497 -15.697,-6.497z"/>
   <path id="7" class="fil1" d="M574.498 744.664l7.374 0 0 8.182c2.195,-3.231 4.513,-5.619 6.953,-7.199 2.441,-1.563 4.987,-2.353 7.621,-2.353 2.001,0 4.126,0.632 6.391,1.897l-3.758 6.04c-1.51,-0.65 -2.774,-0.984 -3.81,-0.984 -2.405,0 -4.723,0.984 -6.953,2.95 -2.23,1.967 -3.933,5.039 -5.109,9.183 -0.896,3.178 -1.335,9.622 -1.335,19.314l0 18.91 -7.374 0 0 -55.94z"/>
   <polygon id="8" class="fil1" points="608.93,723.067 616.093,723.067 616.093,767.279 642.22,744.664 652.649,744.664 621.852,771.317 654.44,800.604 644.239,800.604 616.093,775.303 616.093,800.604 608.93,800.604 "/>
   <path id="9" class="fil1" d="M664.325 721.698c1.633,0 3.021,0.579 4.179,1.755 1.159,1.159 1.739,2.581 1.739,4.215 0,1.615 -0.58,3.019 -1.739,4.178 -1.158,1.177 -2.546,1.756 -4.179,1.756 -1.615,0 -2.984,-0.579 -4.143,-1.756 -1.159,-1.159 -1.739,-2.563 -1.739,-4.178 0,-1.634 0.58,-3.056 1.739,-4.215 1.159,-1.176 2.528,-1.755 4.143,-1.755zm-3.564 22.966l7.164 0 0 55.94 -7.164 0 0 -55.94z"/>
   <path id="10" class="fil1" d="M682.902 744.664l7.164 0 0 10.026c2.897,-3.828 6.092,-6.69 9.587,-8.569 3.511,-1.879 7.321,-2.827 11.447,-2.827 4.197,0 7.919,1.054 11.167,3.178 3.249,2.125 5.654,4.987 7.199,8.586 1.545,3.582 2.318,9.183 2.318,16.786l0 28.76 -7.164 0 0 -26.653c0,-6.426 -0.281,-10.728 -0.825,-12.888 -0.878,-3.687 -2.493,-6.461 -4.863,-8.34 -2.371,-1.861 -5.461,-2.792 -9.271,-2.792 -4.372,0 -8.288,1.44 -11.729,4.319 -3.459,2.862 -5.742,6.427 -6.83,10.676 -0.685,2.774 -1.036,7.831 -1.036,15.188l0 20.49 -7.164 0 0 -55.94z"/>
   <path id="11" class="fil1" d="M795.503 744.664l7.164 0 0 44.527c0,7.831 -0.685,13.573 -2.055,17.207 -1.878,5.127 -5.144,9.078 -9.815,11.852 -4.653,2.774 -10.254,4.161 -16.785,4.161 -4.794,0 -9.096,-0.684 -12.923,-2.037 -3.81,-1.369 -6.918,-3.195 -9.324,-5.495 -2.387,-2.283 -4.6,-5.654 -6.619,-10.061l7.796 0c2.124,3.722 4.863,6.479 8.234,8.27 3.354,1.791 7.533,2.686 12.502,2.686 4.916,0 9.06,-0.913 12.431,-2.721 3.389,-1.826 5.794,-4.109 7.234,-6.848 1.44,-2.756 2.16,-7.199 2.16,-13.362l0 -2.879c-2.704,3.424 -6.023,6.057 -9.938,7.883 -3.898,1.844 -8.059,2.757 -12.449,2.757 -5.144,0 -9.973,-1.282 -14.503,-3.827 -4.53,-2.547 -8.024,-5.988 -10.5,-10.29 -2.475,-4.319 -3.704,-9.06 -3.704,-14.222 0,-5.18 1.281,-9.99 3.862,-14.468 2.564,-4.46 6.128,-8.006 10.676,-10.605 4.547,-2.599 9.341,-3.898 14.38,-3.898 4.179,0 8.094,0.861 11.711,2.564 3.617,1.703 7.111,4.547 10.465,8.533l0 -9.727zm-21.263 5.583c-4.074,0 -7.866,0.984 -11.36,2.95 -3.494,1.967 -6.233,4.688 -8.218,8.165 -1.983,3.476 -2.984,7.234 -2.984,11.289 0,6.128 2.054,11.185 6.163,15.206 4.108,4.003 9.446,6.005 15.978,6.005 6.619,0 11.939,-1.984 15.96,-5.953 4.021,-3.985 6.04,-9.2 6.04,-15.679 0,-4.214 -0.931,-7.971 -2.774,-11.272 -1.844,-3.301 -4.478,-5.917 -7.866,-7.831 -3.389,-1.914 -7.041,-2.88 -10.939,-2.88z"/>
  </g>
 </g>
</svg>
