<?xml version="1.0" encoding="UTF-8"?>
<!DOCTYPE svg PUBLIC "-//W3C//DTD SVG 1.1//EN" "http://www.w3.org/Graphics/SVG/1.1/DTD/svg11.dtd">
<!-- Creator: CorelDRAW 2018 (64-Bit Evaluation Version) -->
<svg xmlns="http://www.w3.org/2000/svg" xml:space="preserve" width="960px" height="960px" version="1.1" style="shape-rendering:geometricPrecision; text-rendering:geometricPrecision; image-rendering:optimizeQuality; fill-rule:evenodd; clip-rule:evenodd"
viewBox="0 0 960 960"
 xmlns:xlink="http://www.w3.org/1999/xlink">
 <defs>
  <style type="text/css">
   <![CDATA[
    .fil0 {fill:#ED961B}
   ]]>
  </style>
 </defs>
 <g id="Layer_x0020_1">
  <metadata id="CorelCorpID_0Corel-Layer"/>
  <g id="_2803726754272">
   <path class="fil0" d="M307.5 515l4.742 35.258c7.733,39.469 10.598,56.915 23.877,97.123 3.173,9.606 7.269,20.314 11.366,28.634 2.223,4.513 4.307,8.53 6.678,13.322 2.558,5.169 4.674,8.055 7.38,12.62 3.779,6.372 12.405,16.996 18.364,21.635 9.436,7.35 18.517,11.476 27.556,12.408l7.897 0c8.903,-0.913 17.857,-4.914 27.161,-11.98 9.292,-7.057 20.67,-23.275 25.986,-34.012 25.232,-50.958 30.592,-81.893 41.91,-138.092 5.741,-28.507 8.49,-50.135 -4.57,-77.263 -11.066,-22.984 -28.437,-40.492 -51.668,-51.332 -69.993,-32.66 -146.679,24.267 -146.679,91.679z"/>
   <path class="fil0" d="M506.5 447c5.925,8.85 11.65,17.089 15.631,28.37 10.555,29.921 9.111,42.226 3.653,74.914 -5.822,34.864 -9.705,48.762 -18.162,80.956 -1.645,6.263 5.371,16.706 8.21,22.429 8.085,16.301 25.825,41.331 46.668,41.331 21.602,0 32.719,-11.497 44.149,-27.851 8.672,-12.407 16.577,-30.735 21.724,-46.275 6.552,-19.78 24.127,-87.878 24.127,-110.874 0,-23.327 -11.815,-46.87 -27.692,-61.309 -7.045,-6.405 -12.036,-10.911 -21.624,-15.375 -27.57,-12.838 -60.344,-11.111 -85.701,5.668 -4.025,2.663 -6.956,5.319 -10.983,8.016z"/>
   <path class="fil0" d="M319.5 314.999c0,19.123 5.963,36.35 15.192,50.811 14.054,22.022 42.963,41.19 71.808,41.19l10 0c24.704,0 48.928,-14.832 61.271,-27.73l9.744 -12.255c24.282,-37.027 20.215,-82.686 -9.251,-114.78 -6.412,-6.983 -17.585,-14.65 -26.094,-18.905 -10.91,-5.457 -23.019,-8.591 -35.271,-9.33l-11.335 0c-11.85,0.716 -23.527,3.693 -34.069,8.995 -30.982,15.58 -51.995,46.034 -51.995,82.004z"/>
   <path class="fil0" d="M513.5 284c0.289,3.473 2.105,8.636 2.731,12.268 0.878,5.085 0.839,8.043 1.558,13.448 1.072,8.045 -0.176,18.263 -1.868,26.705 -4.47,22.314 -10.387,27.396 -18.421,42.579 18.133,34.269 62.453,50.489 100.684,32.685 57.039,-26.563 59.464,-109.808 1.985,-138.354 -20.447,-10.154 -45.445,-11.794 -66.349,-2.01 -8.727,4.084 -13.105,7.847 -20.32,12.679z"/>
  </g>
 </g>
</svg>
